<?xml version="1.0" standalone="no"?><!-- Generator: Gravit.io --><svg xmlns="http://www.w3.org/2000/svg" xmlns:xlink="http://www.w3.org/1999/xlink" style="isolation:isolate" viewBox="0 0 500 500" width="500" height="500"><defs><clipPath id="_clipPath_mNKMf884wuFcDDKiMC5yMjT8uc7PQzOF"><rect width="500" height="500"/></clipPath></defs><g clip-path="url(#_clipPath_mNKMf884wuFcDDKiMC5yMjT8uc7PQzOF)"><path d=" M 0 250 C 0 112.021 112.021 0 250 0 C 387.979 0 500 112.021 500 250 C 500 387.979 387.979 500 250 500 C 112.021 500 0 387.979 0 250 Z " fill="rgb(255,255,255)"/><clipPath id="_clipPath_IAwElMuGUcXTKO7hUUlnPsc0s5HvMk7z"><rect x="0" y="0" width="500" height="500" transform="matrix(1,0,0,1,0,0)" fill="rgb(255,255,255)"/></clipPath><g clip-path="url(#_clipPath_IAwElMuGUcXTKO7hUUlnPsc0s5HvMk7z)"><g id="Group"><path d=" M 20 250 C 20 123.06 123.06 20 250 20 C 376.94 20 480 123.06 480 250 C 480 376.94 376.94 480 250 480 C 123.06 480 20 376.94 20 250 Z  M 64.875 301.46 L 64.875 198.38 L 93.315 198.38 Q 104.355 198.38 109.875 204.5 Q 115.395 210.62 115.515 222.62 L 115.755 270.86 Q 115.875 286.1 110.475 293.78 Q 105.075 301.46 92.595 301.46 L 64.875 301.46 Z  M 85.635 283.22 L 89.235 283.22 Q 94.875 283.22 94.875 277.7 L 94.875 224.54 Q 94.875 221.06 94.335 219.32 Q 93.795 217.58 92.355 216.98 Q 90.915 216.38 87.915 216.38 L 85.635 216.38 L 85.635 283.22 Z  M 166.635 301.46 L 124.035 301.46 L 124.035 198.38 L 165.315 198.38 L 165.315 218.3 L 145.035 218.3 L 145.035 238.34 L 164.475 238.34 L 164.475 257.78 L 145.035 257.78 L 145.035 281.42 L 166.635 281.42 L 166.635 301.46 Z  M 211.155 301.46 L 182.955 301.46 L 170.235 198.26 L 189.915 198.26 L 197.475 268.46 L 204.195 198.26 L 223.875 198.26 L 211.155 301.46 Z  M 272.355 301.46 L 229.755 301.46 L 229.755 198.38 L 271.035 198.38 L 271.035 218.3 L 250.755 218.3 L 250.755 238.34 L 270.195 238.34 L 270.195 257.78 L 250.755 257.78 L 250.755 281.42 L 272.355 281.42 L 272.355 301.46 Z  M 321.075 301.46 L 279.195 301.46 L 279.195 198.38 L 299.835 198.38 L 299.835 283.94 L 321.075 283.94 L 321.075 301.46 Z  M 351.435 302.42 Q 338.955 302.42 332.475 294.8 Q 325.995 287.18 325.995 273.38 L 325.995 224.3 Q 325.995 210.98 332.475 204.2 Q 338.955 197.42 351.435 197.42 Q 363.915 197.42 370.395 204.2 Q 376.875 210.98 376.875 224.3 L 376.875 273.38 Q 376.875 287.3 370.395 294.86 Q 363.915 302.42 351.435 302.42 Z  M 351.435 283.46 Q 354.195 283.46 355.155 281.06 Q 356.115 278.66 356.115 274.34 L 356.115 223.94 Q 356.115 220.58 355.215 218.48 Q 354.315 216.38 351.555 216.38 Q 346.395 216.38 346.395 224.18 L 346.395 274.46 Q 346.395 278.9 347.475 281.18 Q 348.555 283.46 351.435 283.46 Z  M 385.155 301.46 L 385.155 198.38 L 412.395 198.38 Q 424.755 198.38 430.035 206.36 Q 435.315 214.34 435.315 229.7 Q 435.315 245.06 430.635 252.86 Q 425.955 260.66 413.835 260.66 L 405.435 260.66 L 405.435 301.46 L 385.155 301.46 Z  M 405.435 242.06 L 406.635 242.06 Q 410.355 242.06 412.095 240.68 Q 413.835 239.3 414.375 236.72 Q 414.915 234.14 414.915 229.34 Q 414.915 222.86 413.475 219.98 Q 412.035 217.1 407.715 217.1 L 405.435 217.1 L 405.435 242.06 Z " fill-rule="evenodd" fill="rgb(255,153,0)"/></g></g></g></svg>