<?xml version="1.0" standalone="no"?><!-- Generator: Gravit.io --><svg xmlns="http://www.w3.org/2000/svg" xmlns:xlink="http://www.w3.org/1999/xlink" style="isolation:isolate" viewBox="0 0 500 500" width="500" height="500"><defs><clipPath id="_clipPath_O6MbsAvQmHPaO3ikGSQAK3jXyMsHp5Fr"><rect width="500" height="500"/></clipPath></defs><g clip-path="url(#_clipPath_O6MbsAvQmHPaO3ikGSQAK3jXyMsHp5Fr)"><path d=" M 0 250 C 0 112.021 112.021 0 250 0 C 387.979 0 500 112.021 500 250 C 500 387.979 387.979 500 250 500 C 112.021 500 0 387.979 0 250 Z " fill="rgb(255,255,255)"/><clipPath id="_clipPath_g6XBvN7cfg2Nt9VKI1FYKD8URZpxnYsW"><rect x="0" y="0" width="500" height="500" transform="matrix(1,0,0,1,0,0)" fill="rgb(255,255,255)"/></clipPath><g clip-path="url(#_clipPath_g6XBvN7cfg2Nt9VKI1FYKD8URZpxnYsW)"><g id="Group"><path d=" M 20 250 C 20 123.06 123.06 20 250 20 C 376.94 20 480 123.06 480 250 C 480 376.94 376.94 480 250 480 C 123.06 480 20 376.94 20 250 Z  M 98.19 301.46 L 98.19 198.38 L 126.63 198.38 Q 137.67 198.38 143.19 204.5 Q 148.71 210.62 148.83 222.62 L 149.07 270.86 Q 149.19 286.1 143.79 293.78 Q 138.39 301.46 125.91 301.46 L 98.19 301.46 Z  M 118.95 283.22 L 122.55 283.22 Q 128.19 283.22 128.19 277.7 L 128.19 224.54 Q 128.19 221.06 127.65 219.32 Q 127.11 217.58 125.67 216.98 Q 124.23 216.38 121.23 216.38 L 118.95 216.38 L 118.95 283.22 Z  M 199.95 301.46 L 157.35 301.46 L 157.35 198.38 L 198.63 198.38 L 198.63 218.3 L 178.35 218.3 L 178.35 238.34 L 197.79 238.34 L 197.79 257.78 L 178.35 257.78 L 178.35 281.42 L 199.95 281.42 L 199.95 301.46 Z  M 231.27 302.42 Q 217.23 302.42 210.99 295.46 Q 204.75 288.5 204.75 273.02 L 204.75 262.94 L 225.03 262.94 L 225.03 275.78 Q 225.03 283.46 229.95 283.46 Q 232.71 283.46 233.79 281.84 Q 234.87 280.22 234.87 276.38 Q 234.87 271.34 233.67 268.04 Q 232.47 264.74 230.61 262.52 Q 228.75 260.3 223.95 255.62 L 215.07 246.74 Q 204.75 236.66 204.75 224.42 Q 204.75 211.22 210.81 204.32 Q 216.87 197.42 228.51 197.42 Q 242.43 197.42 248.55 204.8 Q 254.67 212.18 254.67 227.9 L 233.67 227.9 L 233.55 220.82 Q 233.55 218.78 232.41 217.58 Q 231.27 216.38 229.23 216.38 Q 226.83 216.38 225.63 217.7 Q 224.43 219.02 224.43 221.3 Q 224.43 226.34 230.19 231.74 L 242.19 243.26 Q 246.39 247.34 249.15 251 Q 251.91 254.66 253.59 259.64 Q 255.27 264.62 255.27 271.46 Q 255.27 286.7 249.69 294.56 Q 244.11 302.42 231.27 302.42 Z  M 281.07 301.46 L 261.15 301.46 L 261.15 198.38 L 281.07 198.38 L 281.07 301.46 Z  M 310.59 302.42 Q 299.43 302.42 293.97 294.56 Q 288.51 286.7 288.51 270.74 L 288.51 226.34 Q 288.51 212.06 294.87 204.74 Q 301.23 197.42 313.83 197.42 Q 324.03 197.42 329.67 201.5 Q 335.31 205.58 337.47 213.38 Q 339.63 221.18 339.63 233.42 L 319.47 233.42 L 319.47 224.18 Q 319.47 220.46 318.45 218.42 Q 317.43 216.38 314.79 216.38 Q 308.91 216.38 308.91 224.06 L 308.91 273.98 Q 308.91 278.66 310.11 281.06 Q 311.31 283.46 314.31 283.46 Q 317.31 283.46 318.51 281.06 Q 319.71 278.66 319.71 273.98 L 319.71 259.22 L 314.19 259.22 L 314.19 241.46 L 339.39 241.46 L 339.39 301.46 L 331.11 301.46 L 327.63 292.82 Q 322.11 302.42 310.59 302.42 Z  M 367.71 301.46 L 347.55 301.46 L 347.55 198.38 L 368.79 198.38 L 378.27 247.7 L 378.27 198.38 L 398.19 198.38 L 398.19 301.46 L 378.03 301.46 L 367.71 249.86 L 367.71 301.46 Z " fill-rule="evenodd" fill="rgb(255,0,0)"/></g></g></g></svg>