<?xml version="1.0" standalone="no"?><!-- Generator: Gravit.io --><svg xmlns="http://www.w3.org/2000/svg" xmlns:xlink="http://www.w3.org/1999/xlink" style="isolation:isolate" viewBox="0 0 500 500" width="500" height="500"><defs><clipPath id="_clipPath_j7GoAy7L98VafZHDPn8bV4aWNC1RQKU7"><rect width="500" height="500"/></clipPath></defs><g clip-path="url(#_clipPath_j7GoAy7L98VafZHDPn8bV4aWNC1RQKU7)"><path d=" M 0 250 C 0 112.021 112.021 0 250 0 C 387.979 0 500 112.021 500 250 C 500 387.979 387.979 500 250 500 C 112.021 500 0 387.979 0 250 Z " fill="rgb(255,255,255)"/><clipPath id="_clipPath_AtSWq9k9PVwLzTugvVA2sUK3A9U1ZcSP"><rect x="0" y="0" width="500" height="500" transform="matrix(1,0,0,1,0,0)" fill="rgb(255,255,255)"/></clipPath><g clip-path="url(#_clipPath_AtSWq9k9PVwLzTugvVA2sUK3A9U1ZcSP)"><g id="Group"><path d=" M 20 250 C 20 123.06 123.06 20 250 20 C 376.94 20 480 123.06 480 250 C 480 376.94 376.94 480 250 480 C 123.06 480 20 376.94 20 250 Z  M 161.909 301.46 L 141.389 301.46 L 141.389 198.38 L 161.909 198.38 L 161.909 235.22 L 171.629 235.22 L 171.629 198.38 L 192.149 198.38 L 192.149 301.46 L 171.629 301.46 L 171.629 254.66 L 161.909 254.66 L 161.909 301.46 Z  M 225.869 302.42 Q 213.389 302.42 206.909 294.8 Q 200.429 287.18 200.429 273.38 L 200.429 224.3 Q 200.429 210.98 206.909 204.2 Q 213.389 197.42 225.869 197.42 Q 238.349 197.42 244.829 204.2 Q 251.309 210.98 251.309 224.3 L 251.309 273.38 Q 251.309 287.3 244.829 294.86 Q 238.349 302.42 225.869 302.42 Z  M 225.869 283.46 Q 228.629 283.46 229.589 281.06 Q 230.549 278.66 230.549 274.34 L 230.549 223.94 Q 230.549 220.58 229.649 218.48 Q 228.749 216.38 225.989 216.38 Q 220.829 216.38 220.829 224.18 L 220.829 274.46 Q 220.829 278.9 221.909 281.18 Q 222.989 283.46 225.869 283.46 Z  M 284.069 302.42 Q 270.029 302.42 263.789 295.46 Q 257.549 288.5 257.549 273.02 L 257.549 262.94 L 277.829 262.94 L 277.829 275.78 Q 277.829 283.46 282.749 283.46 Q 285.509 283.46 286.589 281.84 Q 287.669 280.22 287.669 276.38 Q 287.669 271.34 286.469 268.04 Q 285.269 264.74 283.409 262.52 Q 281.549 260.3 276.749 255.62 L 267.869 246.74 Q 257.549 236.66 257.549 224.42 Q 257.549 211.22 263.609 204.32 Q 269.669 197.42 281.309 197.42 Q 295.229 197.42 301.349 204.8 Q 307.469 212.18 307.469 227.9 L 286.469 227.9 L 286.349 220.82 Q 286.349 218.78 285.209 217.58 Q 284.069 216.38 282.029 216.38 Q 279.629 216.38 278.429 217.7 Q 277.229 219.02 277.229 221.3 Q 277.229 226.34 282.989 231.74 L 294.989 243.26 Q 299.189 247.34 301.949 251 Q 304.709 254.66 306.389 259.64 Q 308.069 264.62 308.069 271.46 Q 308.069 286.7 302.489 294.56 Q 296.909 302.42 284.069 302.42 Z  M 344.429 301.46 L 323.789 301.46 L 323.789 218.18 L 311.549 218.18 L 311.549 198.38 L 356.669 198.38 L 356.669 218.18 L 344.429 218.18 L 344.429 301.46 Z " fill-rule="evenodd" fill="rgb(65,184,202)"/></g></g></g></svg>