<?xml version="1.0" standalone="no"?><!-- Generator: Gravit.io --><svg xmlns="http://www.w3.org/2000/svg" xmlns:xlink="http://www.w3.org/1999/xlink" style="isolation:isolate" viewBox="0 0 500 500" width="500" height="500"><defs><clipPath id="_clipPath_qFwCP68mOaDl0V4ytyAq8bZCnZCf0Wrx"><rect width="500" height="500"/></clipPath></defs><g clip-path="url(#_clipPath_qFwCP68mOaDl0V4ytyAq8bZCnZCf0Wrx)"><path d=" M 0 250 C 0 112.021 112.021 0 250 0 C 387.979 0 500 112.021 500 250 C 500 387.979 387.979 500 250 500 C 112.021 500 0 387.979 0 250 Z " fill="rgb(255,255,255)"/><clipPath id="_clipPath_F77Ug1NhMvlGMLlpJ3pN2zAtSeTHIsNz"><rect x="0" y="0" width="500" height="500" transform="matrix(1,0,0,1,0,0)" fill="rgb(255,255,255)"/></clipPath><g clip-path="url(#_clipPath_F77Ug1NhMvlGMLlpJ3pN2zAtSeTHIsNz)"><g id="Group"><path d=" M 20 250 C 20 123.06 123.06 20 250 20 C 376.94 20 480 123.06 480 250 C 480 376.94 376.94 480 250 480 C 123.06 480 20 376.94 20 250 Z  M 83.698 302.42 Q 69.658 302.42 63.418 295.46 Q 57.178 288.5 57.178 273.02 L 57.178 262.94 L 77.458 262.94 L 77.458 275.78 Q 77.458 283.46 82.378 283.46 Q 85.138 283.46 86.218 281.84 Q 87.298 280.22 87.298 276.38 Q 87.298 271.34 86.098 268.04 Q 84.898 264.74 83.038 262.52 Q 81.178 260.3 76.378 255.62 L 67.498 246.74 Q 57.178 236.66 57.178 224.42 Q 57.178 211.22 63.238 204.32 Q 69.298 197.42 80.938 197.42 Q 94.858 197.42 100.978 204.8 Q 107.098 212.18 107.098 227.9 L 86.098 227.9 L 85.978 220.82 Q 85.978 218.78 84.838 217.58 Q 83.698 216.38 81.658 216.38 Q 79.258 216.38 78.058 217.7 Q 76.858 219.02 76.858 221.3 Q 76.858 226.34 82.618 231.74 L 94.618 243.26 Q 98.818 247.34 101.578 251 Q 104.338 254.66 106.018 259.64 Q 107.698 264.62 107.698 271.46 Q 107.698 286.7 102.118 294.56 Q 96.538 302.42 83.698 302.42 Z  M 138.418 302.42 Q 125.698 302.42 119.518 295.22 Q 113.338 288.02 113.338 273.86 L 113.338 198.38 L 133.378 198.38 L 133.378 273.02 Q 133.378 277.94 134.338 280.7 Q 135.298 283.46 138.418 283.46 Q 141.538 283.46 142.498 280.76 Q 143.458 278.06 143.458 273.02 L 143.458 198.38 L 163.498 198.38 L 163.498 273.86 Q 163.498 288.02 157.318 295.22 Q 151.138 302.42 138.418 302.42 Z  M 171.418 301.46 L 171.418 198.38 L 198.658 198.38 Q 211.018 198.38 216.298 206.36 Q 221.578 214.34 221.578 229.7 Q 221.578 245.06 216.898 252.86 Q 212.218 260.66 200.098 260.66 L 191.698 260.66 L 191.698 301.46 L 171.418 301.46 Z  M 191.698 242.06 L 192.898 242.06 Q 196.618 242.06 198.358 240.68 Q 200.098 239.3 200.638 236.72 Q 201.178 234.14 201.178 229.34 Q 201.178 222.86 199.738 219.98 Q 198.298 217.1 193.978 217.1 L 191.698 217.1 L 191.698 242.06 Z  M 228.058 301.46 L 228.058 198.38 L 255.298 198.38 Q 267.658 198.38 272.938 206.36 Q 278.218 214.34 278.218 229.7 Q 278.218 245.06 273.538 252.86 Q 268.858 260.66 256.738 260.66 L 248.338 260.66 L 248.338 301.46 L 228.058 301.46 Z  M 248.338 242.06 L 249.538 242.06 Q 253.258 242.06 254.998 240.68 Q 256.738 239.3 257.277 236.72 Q 257.818 234.14 257.818 229.34 Q 257.818 222.86 256.378 219.98 Q 254.938 217.1 250.618 217.1 L 248.338 217.1 L 248.338 242.06 Z  M 309.298 302.42 Q 296.818 302.42 290.338 294.8 Q 283.857 287.18 283.858 273.38 L 283.858 224.3 Q 283.857 210.98 290.338 204.2 Q 296.818 197.42 309.298 197.42 Q 321.778 197.42 328.258 204.2 Q 334.738 210.98 334.738 224.3 L 334.738 273.38 Q 334.738 287.3 328.258 294.86 Q 321.778 302.42 309.298 302.42 Z  M 309.298 283.46 Q 312.058 283.46 313.018 281.06 Q 313.977 278.66 313.978 274.34 L 313.978 223.94 Q 313.977 220.58 313.078 218.48 Q 312.178 216.38 309.418 216.38 Q 304.258 216.38 304.258 224.18 L 304.258 274.46 Q 304.258 278.9 305.338 281.18 Q 306.418 283.46 309.298 283.46 Z  M 343.018 301.46 L 343.018 198.38 L 374.698 198.38 Q 382.258 198.38 386.398 201.8 Q 390.537 205.22 391.978 211.4 Q 393.417 217.58 393.418 227.18 Q 393.417 235.94 391.138 240.86 Q 388.857 245.78 383.218 247.7 Q 387.898 248.66 389.998 252.38 Q 392.097 256.1 392.098 262.46 L 391.858 301.46 L 371.698 301.46 L 371.698 261.14 Q 371.698 256.82 370.018 255.62 Q 368.338 254.42 363.898 254.42 L 363.898 301.46 L 343.018 301.46 Z  M 364.018 236.54 L 368.938 236.54 Q 373.258 236.54 373.258 227.18 Q 373.258 223.1 372.898 221.06 Q 372.537 219.02 371.578 218.24 Q 370.617 217.46 368.818 217.46 L 364.018 217.46 L 364.018 236.54 Z  M 429.778 301.46 L 409.138 301.46 L 409.138 218.18 L 396.898 218.18 L 396.898 198.38 L 442.018 198.38 L 442.018 218.18 L 429.778 218.18 L 429.778 301.46 Z " fill-rule="evenodd" fill="rgb(81,206,81)"/></g></g></g></svg>